<svg xmlns="http://www.w3.org/2000/svg" class="prefix__aplos-chart prefix__aplos-chart-svg prefix__style-scope prefix__yta-line-chart-base" aria-hidden="true" width="637" height="190"><g class="prefix__aplos-draw-area prefix__style-scope prefix__yta-line-chart-base"><g class="prefix__x prefix__axis prefix__style-scope prefix__yta-line-chart-base"><g class="prefix__tick prefix__first-tick prefix__style-scope prefix__yta-line-chart-base"><text class="prefix__label prefix__style-scope prefix__yta-line-chart-base" y="-12" dy=".71em" transform="translate(40 156)"><tspan x="0" class="prefix__style-scope prefix__yta-line-chart-base">Jan 15</tspan></text><path class="prefix__tick-mark prefix__strong-tick-mark prefix__style-scope prefix__yta-line-chart-base" d="M40 156v6"/></g><g class="prefix__tick prefix__last-tick prefix__style-scope prefix__yta-line-chart-base"><text class="prefix__label prefix__style-scope prefix__yta-line-chart-base" text-anchor="end" y="-12" dy=".71em" transform="translate(600 156)"><tspan x="0" class="prefix__style-scope prefix__yta-line-chart-base">Feb 11</tspan></text><path class="prefix__tick-mark prefix__strong-tick-mark prefix__style-scope prefix__yta-line-chart-base" d="M600 156v6"/></g></g><g class="prefix__y2 prefix__axis prefix__style-scope prefix__yta-line-chart-base"><g class="prefix__tick prefix__first-tick prefix__style-scope prefix__yta-line-chart-base"><text class="prefix__label prefix__style-scope prefix__yta-line-chart-base" text-anchor="end" dy=".32em" transform="translate(10 16)"><tspan x="20" class="prefix__style-scope prefix__yta-line-chart-base">6</tspan></text><path class="prefix__tick-mark prefix__style-scope prefix__yta-line-chart-base" d="M10 16"/><path class="prefix__gridline prefix__style-scope prefix__yta-line-chart-base" d="M10 16"/></g><g class="prefix__tick prefix__style-scope prefix__yta-line-chart-base"><text class="prefix__label prefix__style-scope prefix__yta-line-chart-base" text-anchor="end" dy=".32em" transform="translate(10 52.667)"><tspan x="20" class="prefix__style-scope prefix__yta-line-chart-base">4</tspan></text><path class="prefix__tick-mark prefix__style-scope prefix__yta-line-chart-base" d="M10 52.667"/><path class="prefix__gridline prefix__style-scope prefix__yta-line-chart-base" d="M10 52.667h-560"/></g><g class="prefix__tick prefix__style-scope prefix__yta-line-chart-base"><text class="prefix__label prefix__style-scope prefix__yta-line-chart-base" text-anchor="end" dy=".32em" transform="translate(10 89.333)"><tspan x="20" class="prefix__style-scope prefix__yta-line-chart-base">2</tspan></text><path class="prefix__tick-mark prefix__style-scope prefix__yta-line-chart-base" d="M10 89.333"/><path class="prefix__gridline prefix__style-scope prefix__yta-line-chart-base" d="M10 89.333h-560"/></g><g class="prefix__tick prefix__last-tick prefix__style-scope prefix__yta-line-chart-base"><text class="prefix__label prefix__style-scope prefix__yta-line-chart-base" text-anchor="end" dy=".32em" transform="translate(10 126)"><tspan x="20" class="prefix__style-scope prefix__yta-line-chart-base">0</tspan></text><path class="prefix__tick-mark prefix__style-scope prefix__yta-line-chart-base" d="M10 126"/><path class="prefix__gridline prefix__axis-zero-tick prefix__style-scope prefix__yta-line-chart-base" d="M10 126h-560"/></g></g><g class="prefix__baseline-group prefix__style-scope prefix__yta-line-chart-base"><path class="prefix__baseline prefix__y2-axis-baseline prefix__style-scope prefix__yta-line-chart-base" fill="none" stroke="#9e9e9e" shape-rendering="crispEdges" d="M40 126h560"/></g><g class="prefix__axis-line-group prefix__style-scope prefix__yta-line-chart-base"><path class="prefix__axis-line prefix__x-axis-line prefix__style-scope prefix__yta-line-chart-base" fill="none" stroke="#9e9e9e" shape-rendering="crispEdges" d="M40 126h560"/></g><g class="prefix__seriesGroups prefix__style-scope prefix__yta-line-chart-base"><g class="prefix__style-scope prefix__yta-line-chart-base" transform="translate(40 16)"><defs class="prefix__style-scope prefix__yta-line-chart-base"><clipPath id="prefix__a" class="prefix__style-scope prefix__yta-line-chart-base"><path class="prefix__style-scope prefix__yta-line-chart-base" d="M0-16h560v190H0z"/></clipPath></defs><g class="prefix__area-segments prefix__style-scope prefix__yta-line-chart-base"><path class="prefix__area prefix__style-scope prefix__yta-line-chart-base" clip-path="url(#prefix__a)" fill="rgba(47, 165, 203, 0.1)" d="M0 51.392l20.74 18.163 20.741 8.271 20.741-2.074 20.741-18.924 20.74-3.702 20.741 27.48 20.741-.653 20.74-8.88 20.742-31.688 20.74 39.807 20.741-16.573 20.74-28.217L269.63 51.63l20.74-.634 20.741-10.454 20.74 9.7 20.742 4.099 20.74-36.963 20.741 33.289 20.74.104 20.742-2.833 20.74-33.506 20.741 12.557 20.74-18.732L518.52 48.23l20.74-15.765L560 56.961V110H0z"/></g></g><g class="prefix__style-scope prefix__yta-line-chart-base" transform="translate(40 16)"><defs class="prefix__style-scope prefix__yta-line-chart-base"><clipPath id="prefix__b" class="prefix__style-scope prefix__yta-line-chart-base"><path class="prefix__style-scope prefix__yta-line-chart-base" d="M0-16h560v190H0z"/></clipPath></defs><g class="prefix__line-segments prefix__style-scope prefix__yta-line-chart-base"><path class="prefix__line-series prefix__style-scope prefix__yta-line-chart-base" fill="none" stroke="rgba(47, 165, 203, 1)" d="M0 51l21 19 20 8 21-2 21-19 21-4 20 28 21-1 21-9 21-32 20 40 21-16 21-29 21 18 20-1 21-10 21 9 21 4 20-37 21 34h21l21-3 20-34 21 13 21-19 21 40 20-16 21 25" clip-path="url(#prefix__b)" stroke-width="2"/></g></g></g></g></svg>