<svg xmlns="http://www.w3.org/2000/svg" class="prefix__aplos-chart prefix__aplos-chart-svg prefix__style-scope prefix__yta-line-chart-base" aria-hidden="true" width="637" height="190"><g class="prefix__aplos-draw-area prefix__style-scope prefix__yta-line-chart-base"><g class="prefix__x prefix__axis prefix__style-scope prefix__yta-line-chart-base"><g class="prefix__tick prefix__first-tick prefix__style-scope prefix__yta-line-chart-base"><text class="prefix__label prefix__style-scope prefix__yta-line-chart-base" y="-12" dy=".71em" transform="translate(40 156)"><tspan x="0" class="prefix__style-scope prefix__yta-line-chart-base">Jan 15</tspan></text><path class="prefix__tick-mark prefix__strong-tick-mark prefix__style-scope prefix__yta-line-chart-base" d="M40 156v6"/></g><g class="prefix__tick prefix__last-tick prefix__style-scope prefix__yta-line-chart-base"><text class="prefix__label prefix__style-scope prefix__yta-line-chart-base" text-anchor="end" y="-12" dy=".71em" transform="translate(596 156)"><tspan x="0" class="prefix__style-scope prefix__yta-line-chart-base">Feb 11</tspan></text><path class="prefix__tick-mark prefix__strong-tick-mark prefix__style-scope prefix__yta-line-chart-base" d="M596 156v6"/></g></g><g class="prefix__y2 prefix__axis prefix__style-scope prefix__yta-line-chart-base"><g class="prefix__tick prefix__first-tick prefix__style-scope prefix__yta-line-chart-base"><text class="prefix__label prefix__style-scope prefix__yta-line-chart-base" text-anchor="end" dy=".32em" transform="translate(10 16)"><tspan x="20" class="prefix__style-scope prefix__yta-line-chart-base">225</tspan></text><path class="prefix__tick-mark prefix__style-scope prefix__yta-line-chart-base" d="M10 16"/><path class="prefix__gridline prefix__style-scope prefix__yta-line-chart-base" d="M10 16"/></g><g class="prefix__tick prefix__style-scope prefix__yta-line-chart-base"><text class="prefix__label prefix__style-scope prefix__yta-line-chart-base" text-anchor="end" dy=".32em" transform="translate(10 52.667)"><tspan x="20" class="prefix__style-scope prefix__yta-line-chart-base">150</tspan></text><path class="prefix__tick-mark prefix__style-scope prefix__yta-line-chart-base" d="M10 52.667"/><path class="prefix__gridline prefix__style-scope prefix__yta-line-chart-base" d="M10 52.667"/></g><g class="prefix__tick prefix__style-scope prefix__yta-line-chart-base"><text class="prefix__label prefix__style-scope prefix__yta-line-chart-base" text-anchor="end" dy=".32em" transform="translate(10 89.333)"><tspan x="20" class="prefix__style-scope prefix__yta-line-chart-base">75</tspan></text><path class="prefix__tick-mark prefix__style-scope prefix__yta-line-chart-base" d="M10 89.333"/><path class="prefix__gridline prefix__style-scope prefix__yta-line-chart-base" d="M10 89.333"/></g><g class="prefix__tick prefix__last-tick prefix__style-scope prefix__yta-line-chart-base"><text class="prefix__label prefix__style-scope prefix__yta-line-chart-base" text-anchor="end" dy=".32em" transform="translate(10 126)"><tspan x="20" class="prefix__style-scope prefix__yta-line-chart-base">0</tspan></text><path class="prefix__tick-mark prefix__style-scope prefix__yta-line-chart-base" d="M10 126"/><path class="prefix__gridline prefix__axis-zero-tick prefix__style-scope prefix__yta-line-chart-base" d="M10 126"/></g></g><g class="prefix__baseline-group prefix__style-scope prefix__yta-line-chart-base"><path class="prefix__baseline prefix__y2-axis-baseline prefix__style-scope prefix__yta-line-chart-base" fill="none" stroke="#9e9e9e" shape-rendering="crispEdges" d="M40 126h556"/></g><g class="prefix__axis-line-group prefix__style-scope prefix__yta-line-chart-base"><path class="prefix__axis-line prefix__x-axis-line prefix__style-scope prefix__yta-line-chart-base" fill="none" stroke="#9e9e9e" shape-rendering="crispEdges" d="M40 126h556"/></g><g class="prefix__seriesGroups prefix__style-scope prefix__yta-line-chart-base"><g class="prefix__style-scope prefix__yta-line-chart-base" transform="translate(40 16)"><defs class="prefix__style-scope prefix__yta-line-chart-base"><clipPath id="prefix__a" class="prefix__style-scope prefix__yta-line-chart-base"><path class="prefix__style-scope prefix__yta-line-chart-base" d="M0-16h556v190H0z"/></clipPath></defs><g class="prefix__area-segments prefix__style-scope prefix__yta-line-chart-base"><path class="prefix__area prefix__style-scope prefix__yta-line-chart-base" clip-path="url(#prefix__a)" fill="rgba(47, 165, 203, 0.1)" d="M0 56.222l20.593 12.222 20.592 8.312 20.593-1.467L82.37 69.91l20.593 2.933 20.593 4.89 20.592-12.223 20.593 8.8 20.592-21.022 20.593 8.311 20.593 5.867 20.592-9.778 20.593-8.311 20.592 1.955L308.89 40.09l20.592 1.467 20.593 11.733 20.593-23.467 20.592 4.4 20.593 21.511 20.592-23.466 20.593-20.045L473.63 22.49l20.592.978 20.593 10.755 20.592 25.422L556 49.867V110H0z"/></g></g><g class="prefix__style-scope prefix__yta-line-chart-base" transform="translate(40 16)"><defs class="prefix__style-scope prefix__yta-line-chart-base"><clipPath id="prefix__b" class="prefix__style-scope prefix__yta-line-chart-base"><path class="prefix__style-scope prefix__yta-line-chart-base" d="M0-16h556v190H0z"/></clipPath></defs><g class="prefix__line-segments prefix__style-scope prefix__yta-line-chart-base"><path class="prefix__line-series prefix__style-scope prefix__yta-line-chart-base" fill="none" stroke="rgba(47, 165, 203, 1)" d="M0 56l21 12 20 9 21-2 20-5 21 3 21 5 20-12 21 8 20-21 21 9 21 5 20-9 21-9 20 2 21-11 20 2 21 11 21-23 20 4 21 22 20-24 21-20 21 10 20 1 21 11 20 26 21-10" clip-path="url(#prefix__b)" stroke-width="2"/></g></g></g></g></svg>