<svg xmlns="http://www.w3.org/2000/svg" class="prefix__aplos-chart prefix__aplos-chart-svg prefix__style-scope prefix__yta-line-chart-base" aria-hidden="true" width="637" height="190"><g class="prefix__aplos-draw-area prefix__style-scope prefix__yta-line-chart-base"><g class="prefix__x prefix__axis prefix__style-scope prefix__yta-line-chart-base"><g class="prefix__tick prefix__first-tick prefix__style-scope prefix__yta-line-chart-base"><text class="prefix__label prefix__style-scope prefix__yta-line-chart-base" y="-12" dy=".71em" transform="translate(40 156)"><tspan x="0" class="prefix__style-scope prefix__yta-line-chart-base">Jan 15</tspan></text><path class="prefix__tick-mark prefix__strong-tick-mark prefix__style-scope prefix__yta-line-chart-base" d="M40 156v6"/></g><g class="prefix__tick prefix__last-tick prefix__style-scope prefix__yta-line-chart-base"><text class="prefix__label prefix__style-scope prefix__yta-line-chart-base" text-anchor="end" y="-12" dy=".71em" transform="translate(610 156)"><tspan x="0" class="prefix__style-scope prefix__yta-line-chart-base">Feb 11</tspan></text><path class="prefix__tick-mark prefix__strong-tick-mark prefix__style-scope prefix__yta-line-chart-base" d="M610 156v6"/></g></g><g class="prefix__y2 prefix__axis prefix__style-scope prefix__yta-line-chart-base"><g class="prefix__tick prefix__first-tick prefix__style-scope prefix__yta-line-chart-base"><text class="prefix__label prefix__style-scope prefix__yta-line-chart-base" text-anchor="end" dy=".32em" transform="translate(10 16)"><tspan x="20" class="prefix__style-scope prefix__yta-line-chart-base">6</tspan></text><path class="prefix__tick-mark prefix__style-scope prefix__yta-line-chart-base" d="M10 16"/><path class="prefix__gridline prefix__style-scope prefix__yta-line-chart-base" d="M10 16h-570"/></g><g class="prefix__tick prefix__style-scope prefix__yta-line-chart-base"><text class="prefix__label prefix__style-scope prefix__yta-line-chart-base" text-anchor="end" dy=".32em" transform="translate(10 52.667)"><tspan x="20" class="prefix__style-scope prefix__yta-line-chart-base">4</tspan></text><path class="prefix__tick-mark prefix__style-scope prefix__yta-line-chart-base" d="M10 52.667"/><path class="prefix__gridline prefix__style-scope prefix__yta-line-chart-base" d="M10 52.667h-570"/></g><g class="prefix__tick prefix__style-scope prefix__yta-line-chart-base"><text class="prefix__label prefix__style-scope prefix__yta-line-chart-base" text-anchor="end" dy=".32em" transform="translate(10 89.333)"><tspan x="20" class="prefix__style-scope prefix__yta-line-chart-base">2</tspan></text><path class="prefix__tick-mark prefix__style-scope prefix__yta-line-chart-base" d="M10 89.333"/><path class="prefix__gridline prefix__style-scope prefix__yta-line-chart-base" d="M10 89.333h-570"/></g><g class="prefix__tick prefix__last-tick prefix__style-scope prefix__yta-line-chart-base"><text class="prefix__label prefix__style-scope prefix__yta-line-chart-base" text-anchor="end" dy=".32em" transform="translate(10 126)"><tspan x="20" class="prefix__style-scope prefix__yta-line-chart-base">0</tspan></text><path class="prefix__tick-mark prefix__style-scope prefix__yta-line-chart-base" d="M10 126"/><path class="prefix__gridline prefix__axis-zero-tick prefix__style-scope prefix__yta-line-chart-base" d="M10 126h-570"/></g></g><g class="prefix__baseline-group prefix__style-scope prefix__yta-line-chart-base"><path class="prefix__baseline prefix__y2-axis-baseline prefix__style-scope prefix__yta-line-chart-base" fill="none" stroke="#9e9e9e" shape-rendering="crispEdges" d="M40 126h570"/></g><g class="prefix__axis-line-group prefix__style-scope prefix__yta-line-chart-base"><path class="prefix__axis-line prefix__x-axis-line prefix__style-scope prefix__yta-line-chart-base" fill="none" stroke="#9e9e9e" shape-rendering="crispEdges" d="M40 126h570"/></g><g class="prefix__seriesGroups prefix__style-scope prefix__yta-line-chart-base"><g class="prefix__style-scope prefix__yta-line-chart-base" transform="translate(40 16)"><defs class="prefix__style-scope prefix__yta-line-chart-base"><clipPath id="prefix__a" class="prefix__style-scope prefix__yta-line-chart-base"><path class="prefix__style-scope prefix__yta-line-chart-base" d="M0-16h570v190H0z"/></clipPath></defs><g class="prefix__area-segments prefix__style-scope prefix__yta-line-chart-base"><path class="prefix__area prefix__style-scope prefix__yta-line-chart-base" clip-path="url(#prefix__a)" fill="rgba(47, 165, 203, 0.1)" d="M0 55l21.111-18.333L42.222 55l21.111 18.333 21.111-55L105.556 55l21.11 36.667L147.779 110l21.11-36.667L190 110l21.111-18.333h21.111l21.111-18.334 21.111 18.334H316.666L337.779 110l21.11-36.667L380 91.667l21.111-18.334h21.111l21.111-36.666L464.444 55l21.112 55 21.11-36.667h21.112l21.11 18.334L570 110H0z"/></g></g><g class="prefix__style-scope prefix__yta-line-chart-base" transform="translate(40 16)"><defs class="prefix__style-scope prefix__yta-line-chart-base"><clipPath id="prefix__b" class="prefix__style-scope prefix__yta-line-chart-base"><path class="prefix__style-scope prefix__yta-line-chart-base" d="M0-16h570v190H0z"/></clipPath></defs><g class="prefix__line-segments prefix__style-scope prefix__yta-line-chart-base"><path class="prefix__line-series prefix__style-scope prefix__yta-line-chart-base" fill="none" stroke="rgba(47, 165, 203, 1)" d="M0 55l21-18 21 18 21 18 21-55 22 37 21 37 21 18 21-37 21 37 21-18h21l21-19 21 19h43l21 18 21-37 21 19 21-19h21l21-36 21 18 22 55 21-37h21l21 19 21 18" clip-path="url(#prefix__b)" stroke-width="2"/></g></g></g></g></svg>