<svg xmlns="http://www.w3.org/2000/svg" class="prefix__aplos-chart prefix__aplos-chart-svg prefix__style-scope prefix__yta-line-chart-base" aria-hidden="true" width="229" height="60"><g class="prefix__aplos-draw-area prefix__style-scope prefix__yta-line-chart-base"><g class="prefix__axis-line-group prefix__style-scope prefix__yta-line-chart-base"><path class="prefix__axis-line prefix__x-axis-line prefix__style-scope prefix__yta-line-chart-base" fill="none" stroke="#9e9e9e" shape-rendering="crispEdges" d="M0 36h229"/></g><g class="prefix__seriesGroups prefix__style-scope prefix__yta-line-chart-base"><g class="prefix__style-scope prefix__yta-line-chart-base"><g class="prefix__bar-group prefix__style-scope prefix__yta-line-chart-base"><path class="prefix__bar prefix__style-scope prefix__yta-line-chart-base" data-rect="0,36,3.270833333333333,-7" fill="rgba(47, 165, 203, 1)" data-id="VIEWS" d="M0 36v-5.365A1.635 1.635 0 011.635 29a1.635 1.635 0 011.636 1.635V36"/></g><g class="prefix__bar-group prefix__style-scope prefix__yta-line-chart-base"><path class="prefix__bar prefix__style-scope prefix__yta-line-chart-base" data-rect="4.770833333333333,36,3.270833333333333,-7" fill="rgba(47, 165, 203, 1)" data-id="VIEWS" d="M4.77 36v-5.365A1.635 1.635 0 016.407 29a1.635 1.635 0 011.636 1.635V36"/></g><g class="prefix__bar-group prefix__style-scope prefix__yta-line-chart-base"><path class="prefix__bar prefix__style-scope prefix__yta-line-chart-base" data-rect="9.541666666666666,36,3.270833333333333,-18" fill="rgba(47, 165, 203, 1)" data-id="VIEWS" d="M9.542 36V19.635A1.635 1.635 0 0111.177 18a1.635 1.635 0 011.635 1.635V36"/></g><g class="prefix__bar-group prefix__style-scope prefix__yta-line-chart-base"><path class="prefix__bar prefix__style-scope prefix__yta-line-chart-base" data-rect="14.3125,36,3.270833333333333,-5" fill="rgba(47, 165, 203, 1)" data-id="VIEWS" d="M14.313 36v-3.365A1.635 1.635 0 0115.947 31a1.635 1.635 0 011.635 1.635V36"/></g><g class="prefix__bar-group prefix__style-scope prefix__yta-line-chart-base"><path class="prefix__bar prefix__style-scope prefix__yta-line-chart-base" data-rect="19.083333333333332,36,3.270833333333333,-7" fill="rgba(47, 165, 203, 1)" data-id="VIEWS" d="M19.083 36v-5.365A1.635 1.635 0 0120.72 29a1.635 1.635 0 011.635 1.635V36"/></g><g class="prefix__bar-group prefix__style-scope prefix__yta-line-chart-base"><path class="prefix__bar prefix__style-scope prefix__yta-line-chart-base" data-rect="23.854166666666668,36,3.270833333333333,-5" fill="rgba(47, 165, 203, 1)" data-id="VIEWS" d="M23.854 36v-3.365A1.635 1.635 0 0125.49 31a1.635 1.635 0 011.635 1.635V36"/></g><g class="prefix__bar-group prefix__style-scope prefix__yta-line-chart-base"><path class="prefix__bar prefix__style-scope prefix__yta-line-chart-base" data-rect="28.625,36,3.270833333333333,-12" fill="rgba(47, 165, 203, 1)" data-id="VIEWS" d="M28.625 36V25.635A1.635 1.635 0 0130.26 24a1.635 1.635 0 011.636 1.635V36"/></g><g class="prefix__bar-group prefix__style-scope prefix__yta-line-chart-base"><path class="prefix__bar prefix__style-scope prefix__yta-line-chart-base" data-rect="33.395833333333336,36,3.270833333333333,-18" fill="rgba(47, 165, 203, 1)" data-id="VIEWS" d="M33.396 36V19.635A1.635 1.635 0 0135.03 18a1.635 1.635 0 011.636 1.635V36"/></g><g class="prefix__bar-group prefix__style-scope prefix__yta-line-chart-base"><path class="prefix__bar prefix__style-scope prefix__yta-line-chart-base" data-rect="38.166666666666664,36,3.270833333333333,-9" fill="rgba(47, 165, 203, 1)" data-id="VIEWS" d="M38.167 36v-7.365A1.635 1.635 0 0139.802 27a1.635 1.635 0 011.635 1.635V36"/></g><g class="prefix__bar-group prefix__style-scope prefix__yta-line-chart-base"><path class="prefix__bar prefix__style-scope prefix__yta-line-chart-base" data-rect="42.9375,36,3.270833333333333,-23" fill="rgba(47, 165, 203, 1)" data-id="VIEWS" d="M42.938 36V14.635A1.635 1.635 0 0144.572 13a1.635 1.635 0 011.635 1.635V36"/></g><g class="prefix__bar-group prefix__style-scope prefix__yta-line-chart-base"><path class="prefix__bar prefix__style-scope prefix__yta-line-chart-base" data-rect="47.708333333333336,36,3.270833333333333,-12" fill="rgba(47, 165, 203, 1)" data-id="VIEWS" d="M47.708 36V25.635A1.635 1.635 0 0149.344 24a1.635 1.635 0 011.635 1.635V36"/></g><g class="prefix__bar-group prefix__style-scope prefix__yta-line-chart-base"><path class="prefix__bar prefix__style-scope prefix__yta-line-chart-base" data-rect="52.479166666666664,36,3.270833333333333,-18" fill="rgba(47, 165, 203, 1)" data-id="VIEWS" d="M52.48 36V19.635A1.635 1.635 0 0154.114 18a1.635 1.635 0 011.635 1.635V36"/></g><g class="prefix__bar-group prefix__style-scope prefix__yta-line-chart-base"><path class="prefix__bar prefix__style-scope prefix__yta-line-chart-base" data-rect="57.25,36,3.270833333333333,-16" fill="rgba(47, 165, 203, 1)" data-id="VIEWS" d="M57.25 36V21.635A1.635 1.635 0 0158.885 20a1.635 1.635 0 011.636 1.635V36"/></g><g class="prefix__bar-group prefix__style-scope prefix__yta-line-chart-base"><path class="prefix__bar prefix__style-scope prefix__yta-line-chart-base" data-rect="62.02083333333333,36,3.270833333333333,-9" fill="rgba(47, 165, 203, 1)" data-id="VIEWS" d="M62.02 36v-7.365A1.635 1.635 0 0163.657 27a1.635 1.635 0 011.636 1.635V36"/></g><g class="prefix__bar-group prefix__style-scope prefix__yta-line-chart-base"><path class="prefix__bar prefix__style-scope prefix__yta-line-chart-base" data-rect="66.79166666666667,36,3.270833333333333,-34" fill="rgba(47, 165, 203, 1)" data-id="VIEWS" d="M66.792 36V3.635A1.635 1.635 0 0168.427 2a1.635 1.635 0 011.636 1.635V36"/></g><g class="prefix__bar-group prefix__style-scope prefix__yta-line-chart-base"><path class="prefix__bar prefix__style-scope prefix__yta-line-chart-base" data-rect="71.5625,36,3.270833333333333,-23" fill="rgba(47, 165, 203, 1)" data-id="VIEWS" d="M71.563 36V14.635A1.635 1.635 0 0173.198 13a1.635 1.635 0 011.635 1.635V36"/></g><g class="prefix__bar-group prefix__style-scope prefix__yta-line-chart-base"><path class="prefix__bar prefix__style-scope prefix__yta-line-chart-base" data-rect="76.33333333333333,36,3.270833333333333,-9" fill="rgba(47, 165, 203, 1)" data-id="VIEWS" d="M76.333 36v-7.365A1.635 1.635 0 0177.97 27a1.635 1.635 0 011.635 1.635V36"/></g><g class="prefix__bar-group prefix__style-scope prefix__yta-line-chart-base"><path class="prefix__bar prefix__style-scope prefix__yta-line-chart-base" data-rect="81.10416666666667,36,3.270833333333333,-18" fill="rgba(47, 165, 203, 1)" data-id="VIEWS" d="M81.104 36V19.635A1.635 1.635 0 0182.74 18a1.635 1.635 0 011.635 1.635V36"/></g><g class="prefix__bar-group prefix__style-scope prefix__yta-line-chart-base"><path class="prefix__bar prefix__style-scope prefix__yta-line-chart-base" data-rect="85.875,36,3.270833333333333,-3" fill="rgba(47, 165, 203, 1)" data-id="VIEWS" d="M85.875 36v-1.365A1.635 1.635 0 0187.51 33a1.635 1.635 0 011.636 1.635V36"/></g><g class="prefix__bar-group prefix__style-scope prefix__yta-line-chart-base"><path class="prefix__bar prefix__style-scope prefix__yta-line-chart-base" data-rect="90.64583333333333,36,3.270833333333333,-7" fill="rgba(47, 165, 203, 1)" data-id="VIEWS" d="M90.646 36v-5.365A1.635 1.635 0 0192.28 29a1.635 1.635 0 011.636 1.635V36"/></g><g class="prefix__bar-group prefix__style-scope prefix__yta-line-chart-base"><path class="prefix__bar prefix__style-scope prefix__yta-line-chart-base" data-rect="95.41666666666667,36,3.270833333333333,-9" fill="rgba(47, 165, 203, 1)" data-id="VIEWS" d="M95.417 36v-7.365A1.635 1.635 0 0197.052 27a1.635 1.635 0 011.636 1.635V36"/></g><g class="prefix__bar-group prefix__style-scope prefix__yta-line-chart-base"><path class="prefix__bar prefix__style-scope prefix__yta-line-chart-base" data-rect="100.1875,36,3.270833333333333,-5" fill="rgba(47, 165, 203, 1)" data-id="VIEWS" d="M100.188 36v-3.365A1.635 1.635 0 01101.823 31a1.635 1.635 0 011.635 1.635V36"/></g><g class="prefix__bar-group prefix__style-scope prefix__yta-line-chart-base"><path class="prefix__bar prefix__style-scope prefix__yta-line-chart-base" data-rect="104.95833333333333,36,3.270833333333333,-7" fill="rgba(47, 165, 203, 1)" data-id="VIEWS" d="M104.958 36v-5.365A1.635 1.635 0 01106.594 29a1.635 1.635 0 011.635 1.635V36"/></g><g class="prefix__bar-group prefix__style-scope prefix__yta-line-chart-base"><path class="prefix__bar prefix__style-scope prefix__yta-line-chart-base" data-rect="109.72916666666667,36,3.270833333333333,-16" fill="rgba(47, 165, 203, 1)" data-id="VIEWS" d="M109.73 36V21.635A1.635 1.635 0 01111.364 20 1.635 1.635 0 01113 21.635V36"/></g><g class="prefix__bar-group prefix__style-scope prefix__yta-line-chart-base"><path class="prefix__bar prefix__style-scope prefix__yta-line-chart-base" data-rect="114.5,36,3.270833333333333,-3" fill="rgba(47, 165, 203, 1)" data-id="VIEWS" d="M114.5 36v-1.365A1.635 1.635 0 01116.135 33a1.635 1.635 0 011.636 1.635V36"/></g><g class="prefix__bar-group prefix__style-scope prefix__yta-line-chart-base"><path class="prefix__bar prefix__style-scope prefix__yta-line-chart-base" data-rect="119.27083333333334,36,3.270833333333333,-7" fill="rgba(47, 165, 203, 1)" data-id="VIEWS" d="M119.27 36v-5.365A1.635 1.635 0 01120.907 29a1.635 1.635 0 011.636 1.635V36"/></g><g class="prefix__bar-group prefix__style-scope prefix__yta-line-chart-base"><path class="prefix__bar prefix__style-scope prefix__yta-line-chart-base" data-rect="124.04166666666666,36,3.270833333333333,-9" fill="rgba(47, 165, 203, 1)" data-id="VIEWS" d="M124.042 36v-7.365A1.635 1.635 0 01125.677 27a1.635 1.635 0 011.635 1.635V36"/></g><g class="prefix__bar-group prefix__style-scope prefix__yta-line-chart-base"><path class="prefix__bar prefix__style-scope prefix__yta-line-chart-base" data-rect="128.8125,36,3.270833333333333,-5" fill="rgba(47, 165, 203, 1)" data-id="VIEWS" d="M128.813 36v-3.365A1.635 1.635 0 01130.447 31a1.635 1.635 0 011.635 1.635V36"/></g><g class="prefix__bar-group prefix__style-scope prefix__yta-line-chart-base"><path class="prefix__bar prefix__style-scope prefix__yta-line-chart-base" data-rect="133.58333333333334,36,3.270833333333333,-9" fill="rgba(47, 165, 203, 1)" data-id="VIEWS" d="M133.583 36v-7.365A1.635 1.635 0 01135.22 27a1.635 1.635 0 011.635 1.635V36"/></g><g class="prefix__bar-group prefix__style-scope prefix__yta-line-chart-base"><path class="prefix__bar prefix__style-scope prefix__yta-line-chart-base" data-rect="138.35416666666666,36,3.270833333333333,-25" fill="rgba(47, 165, 203, 1)" data-id="VIEWS" d="M138.354 36V12.635A1.635 1.635 0 01139.99 11a1.635 1.635 0 011.635 1.635V36"/></g><g class="prefix__bar-group prefix__style-scope prefix__yta-line-chart-base"><path class="prefix__bar prefix__style-scope prefix__yta-line-chart-base" data-rect="143.125,36,3.270833333333333,-12" fill="rgba(47, 165, 203, 1)" data-id="VIEWS" d="M143.125 36V25.635A1.635 1.635 0 01144.76 24a1.635 1.635 0 011.636 1.635V36"/></g><g class="prefix__bar-group prefix__style-scope prefix__yta-line-chart-base"><path class="prefix__bar prefix__style-scope prefix__yta-line-chart-base" data-rect="147.89583333333334,36,3.270833333333333,-18" fill="rgba(47, 165, 203, 1)" data-id="VIEWS" d="M147.896 36V19.635A1.635 1.635 0 01149.53 18a1.635 1.635 0 011.636 1.635V36"/></g><g class="prefix__bar-group prefix__style-scope prefix__yta-line-chart-base"><path class="prefix__bar prefix__style-scope prefix__yta-line-chart-base" data-rect="152.66666666666666,36,3.270833333333333,-5" fill="rgba(47, 165, 203, 1)" data-id="VIEWS" d="M152.667 36v-3.365A1.635 1.635 0 01154.302 31a1.635 1.635 0 011.635 1.635V36"/></g><g class="prefix__bar-group prefix__style-scope prefix__yta-line-chart-base"><path class="prefix__bar prefix__style-scope prefix__yta-line-chart-base" data-rect="157.4375,36,3.270833333333333,-21" fill="rgba(47, 165, 203, 1)" data-id="VIEWS" d="M157.438 36V16.635A1.635 1.635 0 01159.072 15a1.635 1.635 0 011.635 1.635V36"/></g><g class="prefix__bar-group prefix__style-scope prefix__yta-line-chart-base"><path class="prefix__bar prefix__style-scope prefix__yta-line-chart-base" data-rect="162.20833333333334,36,3.270833333333333,-9" fill="rgba(47, 165, 203, 1)" data-id="VIEWS" d="M162.208 36v-7.365A1.635 1.635 0 01163.844 27a1.635 1.635 0 011.635 1.635V36"/></g><g class="prefix__bar-group prefix__style-scope prefix__yta-line-chart-base"><path class="prefix__bar prefix__style-scope prefix__yta-line-chart-base" data-rect="166.97916666666666,36,3.270833333333333,-14" fill="rgba(47, 165, 203, 1)" data-id="VIEWS" d="M166.98 36V23.635A1.635 1.635 0 01168.614 22a1.635 1.635 0 011.635 1.635V36"/></g><g class="prefix__bar-group prefix__style-scope prefix__yta-line-chart-base"><path class="prefix__bar prefix__style-scope prefix__yta-line-chart-base" data-rect="171.75,36,3.270833333333333,-14" fill="rgba(47, 165, 203, 1)" data-id="VIEWS" d="M171.75 36V23.635A1.635 1.635 0 01173.385 22a1.635 1.635 0 011.636 1.635V36"/></g><g class="prefix__bar-group prefix__style-scope prefix__yta-line-chart-base"><path class="prefix__bar prefix__style-scope prefix__yta-line-chart-base" data-rect="176.52083333333334,36,3.270833333333333,-21" fill="rgba(47, 165, 203, 1)" data-id="VIEWS" d="M176.52 36V16.635A1.635 1.635 0 01178.157 15a1.635 1.635 0 011.636 1.635V36"/></g><g class="prefix__bar-group prefix__style-scope prefix__yta-line-chart-base"><path class="prefix__bar prefix__style-scope prefix__yta-line-chart-base" data-rect="181.29166666666666,36,3.270833333333333,-21" fill="rgba(47, 165, 203, 1)" data-id="VIEWS" d="M181.292 36V16.635A1.635 1.635 0 01182.927 15a1.635 1.635 0 011.635 1.635V36"/></g><g class="prefix__bar-group prefix__style-scope prefix__yta-line-chart-base"><path class="prefix__bar prefix__style-scope prefix__yta-line-chart-base" data-rect="186.0625,36,3.270833333333333,-5" fill="rgba(47, 165, 203, 1)" data-id="VIEWS" d="M186.063 36v-3.365A1.635 1.635 0 01187.697 31a1.635 1.635 0 011.635 1.635V36"/></g><g class="prefix__bar-group prefix__style-scope prefix__yta-line-chart-base"><path class="prefix__bar prefix__style-scope prefix__yta-line-chart-base" data-rect="190.83333333333334,36,3.270833333333333,-14" fill="rgba(47, 165, 203, 1)" data-id="VIEWS" d="M190.833 36V23.635A1.635 1.635 0 01192.47 22a1.635 1.635 0 011.635 1.635V36"/></g><g class="prefix__bar-group prefix__style-scope prefix__yta-line-chart-base"><path class="prefix__bar prefix__style-scope prefix__yta-line-chart-base" data-rect="195.60416666666666,36,3.270833333333333,-30" fill="rgba(47, 165, 203, 1)" data-id="VIEWS" d="M195.604 36V7.635A1.635 1.635 0 01197.24 6a1.635 1.635 0 011.635 1.635V36"/></g><g class="prefix__bar-group prefix__style-scope prefix__yta-line-chart-base"><path class="prefix__bar prefix__style-scope prefix__yta-line-chart-base" data-rect="200.375,36,3.270833333333333,-3" fill="rgba(47, 165, 203, 1)" data-id="VIEWS" d="M200.375 36v-1.365A1.635 1.635 0 01202.01 33a1.635 1.635 0 011.636 1.635V36"/></g><g class="prefix__bar-group prefix__style-scope prefix__yta-line-chart-base"><path class="prefix__bar prefix__style-scope prefix__yta-line-chart-base" data-rect="205.14583333333334,36,3.270833333333333,-3" fill="rgba(47, 165, 203, 1)" data-id="VIEWS" d="M205.146 36v-1.365A1.635 1.635 0 01206.78 33a1.635 1.635 0 011.636 1.635V36"/></g><g class="prefix__bar-group prefix__style-scope prefix__yta-line-chart-base"><path class="prefix__bar prefix__style-scope prefix__yta-line-chart-base" data-rect="209.91666666666666,36,3.270833333333333,-9" fill="rgba(47, 165, 203, 1)" data-id="VIEWS" d="M209.917 36v-7.365A1.635 1.635 0 01211.552 27a1.635 1.635 0 011.635 1.635V36"/></g><g class="prefix__bar-group prefix__style-scope prefix__yta-line-chart-base"><path class="prefix__bar prefix__style-scope prefix__yta-line-chart-base" data-rect="214.6875,36,3.270833333333333,-16" fill="rgba(47, 165, 203, 1)" data-id="VIEWS" d="M214.688 36V21.635A1.635 1.635 0 01216.322 20a1.635 1.635 0 011.635 1.635V36"/></g><g class="prefix__bar-group prefix__style-scope prefix__yta-line-chart-base"><path class="prefix__bar prefix__style-scope prefix__yta-line-chart-base" data-rect="219.45833333333334,36,3.270833333333333,-14" fill="rgba(47, 165, 203, 1)" data-id="VIEWS" d="M219.458 36V23.635A1.635 1.635 0 01221.094 22a1.635 1.635 0 011.635 1.635V36"/></g><g class="prefix__bar-group prefix__style-scope prefix__yta-line-chart-base"><path class="prefix__bar prefix__style-scope prefix__yta-line-chart-base" data-rect="224.22916666666666,36,3.270833333333333,0" fill="rgba(47, 165, 203, 1)" data-id="VIEWS" d="M224.23 36h3.27" fill-opacity=".987"/></g></g></g></g></svg>